# xmcd
#
# Track frame offsets:
#	150
#	14475
#	25982
#	49746
#	79368
#	95408
#	111866
#	131354
#	150473
#	166015
#
# Disc length: 2524 seconds
#
# Revision: 1
# Processed by: cddbd v1.5.2PL0 Copyright (c) Steve Scherf et al.
# Submitted via: audiograbber 1.83.01
#
DISCID=7209da0a
DTITLE=Bruce Hornsby - Absolute Zero
DYEAR=2019
DGENRE=Pop
TTITLE0=Absolute Zero
TTITLE1=Fractals
TTITLE2=Cast-Off
TTITLE3=Meds
TTITLE4=Never In This House
TTITLE5=Voyager One
TTITLE6=Echolocation
TTITLE7=The Blinding Light Of Dreams
TTITLE8=White Noise
TTITLE9=Take You There (Misty)
EXTD=
EXTT0=
EXTT1=
EXTT2=
EXTT3=
EXTT4=
EXTT5=
EXTT6=
EXTT7=
EXTT8=
EXTT9=
PLAYORDER=
